<?xml version="1.0" standalone="no"?>
<!DOCTYPE svg PUBLIC "-//W3C//DTD SVG 20010904//EN"
 "http://www.w3.org/TR/2001/REC-SVG-20010904/DTD/svg10.dtd">
<svg version="1.0" xmlns="http://www.w3.org/2000/svg"
 width="1280.000000pt" height="1006.000000pt" viewBox="0 0 1280.000000 1006.000000"
 preserveAspectRatio="xMidYMid meet">
<g transform="translate(0.000000,1006.000000) scale(0.100000,-0.100000)"
fill="#000000" stroke="none">
<path d="M12315 9803 c-11 -2 -396 -93 -855 -200 -459 -107 -840 -199 -846
-204 -6 -5 -97 -244 -203 -532 -106 -288 -197 -530 -201 -538 -8 -12 -674 -14
-4985 -17 -2736 -1 -4975 -5 -4975 -10 0 -4 293 -1261 652 -2795 l652 -2787
3696 0 3696 0 1104 3012 c608 1656 1110 3016 1116 3022 6 6 318 85 693 176
384 92 685 169 688 176 2 7 -31 167 -74 356 l-79 343 -30 2 c-16 0 -38 -1 -49
-4z"/>
<path d="M3211 2100 c-103 -15 -201 -39 -279 -70 -251 -101 -459 -341 -533
-615 -32 -116 -32 -335 -1 -457 82 -328 352 -600 675 -678 412 -101 833 72
1048 431 167 279 170 649 8 936 -51 89 -184 234 -274 299 -82 58 -192 109
-289 134 -91 23 -263 33 -355 20z"/>
<path d="M7315 2084 c-171 -27 -315 -87 -441 -182 -201 -152 -310 -325 -379
-602 -9 -36 -23 -69 -31 -73 -10 -6 -14 -29 -14 -81 0 -402 308 -777 717 -873
113 -26 338 -24 448 6 89 23 221 83 291 131 154 107 296 289 355 456 49 142
65 368 34 513 -67 320 -329 605 -630 686 -59 16 -289 28 -350 19z"/>
</g>
</svg>
